ffmpeg started on 2026-04-01 at 11:28:43
Report written to "D:\Convert\FFMetrics\reports\ssim_report-6.txt"
Log level: 32
Command line:
ffmpeg -hide_banner -nostdin -r 24000/1001 -i "F:\\Convert\\files\\[DC] Make Heroine ga Oosugiru - 07_Telegram_HEVC(269).mkv" -r 24000/1001 -i "F:\\Convert\\files\\[DC] Make Heroine ga Oosugiru - 07_Telegram.mp4" -lavfi "[0:v]settb=AVTB,setpts=PTS-STARTPTS,format=pix_fmts=yuv420p10le,fps=24000/1001,scale=1920:1080:flags=lanczos:param0=3:out_range=limited:out_color_matrix=bt709:out_chroma_loc=left,setsar=1/1,setdar=(1920/1080)*(1/1),colorspace=format=yuv420p10:range=tv:primaries=bt709:trc=bt709:space=bt709:fast=0[main];[1:v]settb=AVTB,setpts=PTS-STARTPTS,format=pix_fmts=yuv420p,fps=24000/1001,scale=1920:1080:flags=lanczos:param0=3:out_range=limited:out_color_matrix=bt709:out_chroma_loc=left,setsar=1/1,setdar=(1920/1080)*(1/1),colorspace=format=yuv420p:range=tv:primaries=bt709:trc=bt709:space=bt709:fast=0[ref];[main][ref]ssim=eof_action=endall:stats_file='D\\:/Convert/FFMetrics/logs/ssim_logfile-6.txt'" -f null -
Input #0, matroska,webm, from 'F:\Convert\files\[DC] Make Heroine ga Oosugiru - 07_Telegram_HEVC(269).mkv':
  Metadata:
    COMPATIBLE_BRANDS: isomiso2avc1mp41
    MAJOR_BRAND     : isom
    MINOR_VERSION   : 512
    ENCODER         : Lavf61.7.100
  Duration: 00:24:06.79, start: -0.021000, bitrate: 961 kb/s
  Stream #0:0: Video: hevc (Main 10), yuv420p10le(tv, bt709, progressive), 1920x1080 [SAR 1:1 DAR 16:9], 23.98 fps, 23.98 tbr, 1k tbn (default)
      Metadata:
        HANDLER_NAME    : VideoHandler
        VENDOR_ID       : [0][0][0][0]
        ENCODER         : Lavc61.19.100 libx265
        BPS             : 764806
        DURATION        : 00:24:06.569708333
        NUMBER_OF_FRAMES: 34683
        NUMBER_OF_BYTES : 138293248
        _STATISTICS_WRITING_APP: mkvpropedit v94.0 ('Initiate') 64-bit
        _STATISTICS_WRITING_DATE_UTC: 2026-03-30 11:54:59
        _STATISTICS_TAGS: BPS DURATION NUMBER_OF_FRAMES NUMBER_OF_BYTES
  Stream #0:1: Audio: aac (LC), 48000 Hz, stereo, fltp (default)
      Metadata:
        HANDLER_NAME    : SoundHandler
        VENDOR_ID       : [0][0][0][0]
        ENCODER         : Lavc61.19.100 aac
        BPS             : 193194
        DURATION        : 00:24:06.784000000
        NUMBER_OF_FRAMES: 67819
        NUMBER_OF_BYTES : 34938755
        _STATISTICS_WRITING_APP: mkvpropedit v94.0 ('Initiate') 64-bit
        _STATISTICS_WRITING_DATE_UTC: 2026-03-30 11:54:59
        _STATISTICS_TAGS: BPS DURATION NUMBER_OF_FRAMES NUMBER_OF_BYTES
Input #1, mov,mp4,m4a,3gp,3g2,mj2, from 'F:\Convert\files\[DC] Make Heroine ga Oosugiru - 07_Telegram.mp4':
  Metadata:
    major_brand     : isom
    minor_version   : 512
    compatible_brands: isomiso2avc1mp41
    encoder         : Lavf60.16.100
  Duration: 00:24:06.74, start: 0.000000, bitrate: 3764 kb/s
  Stream #1:0[0x1](und): Video: h264 (High) (avc1 / 0x31637661), yuv420p(tv, bt709, progressive), 1920x1080 [SAR 1:1 DAR 16:9], 3616 kb/s, 23.98 fps, 23.98 tbr, 24k tbn (default)
      Metadata:
        handler_name    : VideoHandler
        vendor_id       : [0][0][0][0]
        encoder         : Lavc60.31.102 h264_qsv
  Stream #1:1[0x2](und): Audio: aac (HE-AACv2) (mp4a / 0x6134706D), 48000 Hz, stereo, fltp, 144 kb/s (default)
      Metadata:
        handler_name    : SoundHandler
        vendor_id       : [0][0][0][0]
Stream mapping:
  Stream #0:0 (hevc) -> settb:default
  Stream #1:0 (h264) -> settb:default
  ssim:default -> Stream #0:0 (wrapped_avframe)
  Stream #0:1 -> #0:1 (aac (native) -> pcm_s16le (native))
Output #0, null, to 'pipe:':
  Metadata:
    COMPATIBLE_BRANDS: isomiso2avc1mp41
    MAJOR_BRAND     : isom
    MINOR_VERSION   : 512
    encoder         : Lavf61.7.100
  Stream #0:0: Video: wrapped_avframe, yuv420p10le(tv, bt709, progressive), 1920x1080 [SAR 1:1 DAR 16:9], q=2-31, 200 kb/s, 23.98 fps, 23.98 tbn
      Metadata:
        encoder         : Lavc61.19.100 wrapped_avframe
  Stream #0:1: Audio: pcm_s16le, 48000 Hz, stereo, s16, 1536 kb/s (default)
      Metadata:
        HANDLER_NAME    : SoundHandler
        VENDOR_ID       : [0][0][0][0]
        _STATISTICS_TAGS: BPS DURATION NUMBER_OF_FRAMES NUMBER_OF_BYTES
        BPS             : 193194
        DURATION        : 00:24:06.784000000
        NUMBER_OF_FRAMES: 67819
        NUMBER_OF_BYTES : 34938755
        _STATISTICS_WRITING_APP: mkvpropedit v94.0 ('Initiate') 64-bit
        _STATISTICS_WRITING_DATE_UTC: 2026-03-30 11:54:59
        encoder         : Lavc61.19.100 pcm_s16le
frame=  117 fps=0.0 q=-0.0 size=N/A time=00:00:04.87 bitrate=N/A speed=9.48x    frame=  286 fps=279 q=-0.0 size=N/A time=00:00:11.92 bitrate=N/A speed=11.6x    frame=  467 fps=301 q=-0.0 size=N/A time=00:00:19.47 bitrate=N/A speed=12.5x    frame=  647 fps=313 q=-0.0 size=N/A time=00:00:26.98 bitrate=N/A speed=13.1x    frame=  827 fps=321 q=-0.0 size=N/A time=00:00:34.49 bitrate=N/A speed=13.4x    frame=  969 fps=312 q=-0.0 size=N/A time=00:00:40.41 bitrate=N/A speed=  13x    frame= 1118 fps=309 q=-0.0 size=N/A time=00:00:46.62 bitrate=N/A speed=12.9x    frame= 1271 fps=308 q=-0.0 size=N/A time=00:00:53.01 bitrate=N/A speed=12.9x    frame= 1427 fps=308 q=-0.0 size=N/A time=00:00:59.51 bitrate=N/A speed=12.8x    frame= 1565 fps=303 q=-0.0 size=N/A time=00:01:05.27 bitrate=N/A speed=12.6x    frame= 1719 fps=302 q=-0.0 size=N/A time=00:01:11.69 bitrate=N/A speed=12.6x    frame= 1878 fps=303 q=-0.0 size=N/A time=00:01:18.32 bitrate=N/A speed=12.6x    frame= 2034 fps=303 q=-0.0 size=N/A time=00:01:24.83 bitrate=N/A speed=12.6x    frame= 2138 fps=295 q=-0.0 size=N/A time=00:01:29.17 bitrate=N/A speed=12.3x    frame= 2284 fps=295 q=-0.0 size=N/A time=00:01:35.26 bitrate=N/A speed=12.3x    frame= 2427 fps=294 q=-0.0 size=N/A time=00:01:41.22 bitrate=N/A speed=12.2x    frame= 2550 fps=291 q=-0.0 size=N/A time=00:01:46.35 bitrate=N/A speed=12.1x    frame= 2714 fps=292 q=-0.0 size=N/A time=00:01:53.19 bitrate=N/A speed=12.2x    frame= 2879 fps=293 q=-0.0 size=N/A time=00:02:00.07 bitrate=N/A speed=12.2x    frame= 3048 fps=295 q=-0.0 size=N/A time=00:02:07.12 bitrate=N/A speed=12.3x    frame= 3230 fps=298 q=-0.0 size=N/A time=00:02:14.71 bitrate=N/A speed=12.4x    frame= 3410 fps=300 q=-0.0 size=N/A time=00:02:22.22 bitrate=N/A speed=12.5x    frame= 3587 fps=302 q=-0.0 size=N/A time=00:02:29.60 bitrate=N/A speed=12.6x    frame= 3756 fps=303 q=-0.0 size=N/A time=00:02:36.65 bitrate=N/A speed=12.7x    frame= 3935 fps=305 q=-0.0 size=N/A time=00:02:44.12 bitrate=N/A speed=12.7x    frame= 4112 fps=306 q=-0.0 size=N/A time=00:02:51.50 bitrate=N/A speed=12.8x    frame= 4285 fps=308 q=-0.0 size=N/A time=00:02:58.72 bitrate=N/A speed=12.8x    frame= 4468 fps=309 q=-0.0 size=N/A time=00:03:06.35 bitrate=N/A speed=12.9x    frame= 4648 fps=310 q=-0.0 size=N/A time=00:03:13.86 bitrate=N/A speed=12.9x    frame= 4821 fps=311 q=-0.0 size=N/A time=00:03:21.07 bitrate=N/A speed=  13x    frame= 4996 fps=312 q=-0.0 size=N/A time=00:03:28.37 bitrate=N/A speed=  13x    frame= 5176 fps=313 q=-0.0 size=N/A time=00:03:35.88 bitrate=N/A speed=13.1x    frame= 5346 fps=314 q=-0.0 size=N/A time=00:03:42.97 bitrate=N/A speed=13.1x    frame= 5514 fps=314 q=-0.0 size=N/A time=00:03:49.97 bitrate=N/A speed=13.1x    frame= 5696 fps=315 q=-0.0 size=N/A time=00:03:57.57 bitrate=N/A speed=13.1x    frame= 5871 fps=316 q=-0.0 size=N/A time=00:04:04.86 bitrate=N/A speed=13.2x    frame= 6045 fps=317 q=-0.0 size=N/A time=00:04:12.12 bitrate=N/A speed=13.2x    frame= 6227 fps=317 q=-0.0 size=N/A time=00:04:19.71 bitrate=N/A speed=13.2x    frame= 6402 fps=318 q=-0.0 size=N/A time=00:04:27.01 bitrate=N/A speed=13.3x    frame= 6580 fps=319 q=-0.0 size=N/A time=00:04:34.44 bitrate=N/A speed=13.3x    frame= 6756 fps=319 q=-0.0 size=N/A time=00:04:41.78 bitrate=N/A speed=13.3x    frame= 6934 fps=320 q=-0.0 size=N/A time=00:04:49.20 bitrate=N/A speed=13.3x    frame= 7109 fps=320 q=-0.0 size=N/A time=00:04:56.50 bitrate=N/A speed=13.4x    frame= 7281 fps=321 q=-0.0 size=N/A time=00:05:03.67 bitrate=N/A speed=13.4x    frame= 7458 fps=321 q=-0.0 size=N/A time=00:05:11.06 bitrate=N/A speed=13.4x    frame= 7627 fps=321 q=-0.0 size=N/A time=00:05:18.10 bitrate=N/A speed=13.4x    frame= 7793 fps=321 q=-0.0 size=N/A time=00:05:25.03 bitrate=N/A speed=13.4x    frame= 7966 fps=322 q=-0.0 size=N/A time=00:05:32.24 bitrate=N/A speed=13.4x    frame= 8137 fps=322 q=-0.0 size=N/A time=00:05:39.38 bitrate=N/A speed=13.4x    frame= 8297 fps=322 q=-0.0 size=N/A time=00:05:46.05 bitrate=N/A speed=13.4x    frame= 8459 fps=322 q=-0.0 size=N/A time=00:05:52.81 bitrate=N/A speed=13.4x    frame= 8634 fps=322 q=-0.0 size=N/A time=00:06:00.10 bitrate=N/A speed=13.4x    frame= 8781 fps=321 q=-0.0 size=N/A time=00:06:06.24 bitrate=N/A speed=13.4x    frame= 8942 fps=321 q=-0.0 size=N/A time=00:06:12.95 bitrate=N/A speed=13.4x    frame= 9108 fps=321 q=-0.0 size=N/A time=00:06:19.87 bitrate=N/A speed=13.4x    frame= 9291 fps=322 q=-0.0 size=N/A time=00:06:27.51 bitrate=N/A speed=13.4x    frame= 9465 fps=322 q=-0.0 size=N/A time=00:06:34.76 bitrate=N/A speed=13.4x    frame= 9635 fps=322 q=-0.0 size=N/A time=00:06:41.85 bitrate=N/A speed=13.4x    frame= 9811 fps=322 q=-0.0 size=N/A time=00:06:49.20 bitrate=N/A speed=13.4x    frame= 9977 fps=322 q=-0.0 size=N/A time=00:06:56.12 bitrate=N/A speed=13.4x    frame=10137 fps=322 q=-0.0 size=N/A time=00:07:02.79 bitrate=N/A speed=13.4x    frame=10314 fps=323 q=-0.0 size=N/A time=00:07:10.17 bitrate=N/A speed=13.5x    frame=10492 fps=323 q=-0.0 size=N/A time=00:07:17.60 bitrate=N/A speed=13.5x    frame=10664 fps=323 q=-0.0 size=N/A time=00:07:24.77 bitrate=N/A speed=13.5x    frame=10840 fps=323 q=-0.0 size=N/A time=00:07:32.11 bitrate=N/A speed=13.5x    frame=11005 fps=323 q=-0.0 size=N/A time=00:07:39.00 bitrate=N/A speed=13.5x    frame=11158 fps=323 q=-0.0 size=N/A time=00:07:45.38 bitrate=N/A speed=13.5x    frame=11310 fps=322 q=-0.0 size=N/A time=00:07:51.72 bitrate=N/A speed=13.4x    frame=11475 fps=322 q=-0.0 size=N/A time=00:07:58.60 bitrate=N/A speed=13.4x    frame=11654 fps=323 q=-0.0 size=N/A time=00:08:06.06 bitrate=N/A speed=13.5x    frame=11833 fps=323 q=-0.0 size=N/A time=00:08:13.53 bitrate=N/A speed=13.5x    frame=12005 fps=323 q=-0.0 size=N/A time=00:08:20.70 bitrate=N/A speed=13.5x    frame=12167 fps=323 q=-0.0 size=N/A time=00:08:27.46 bitrate=N/A speed=13.5x    frame=12329 fps=323 q=-0.0 size=N/A time=00:08:34.22 bitrate=N/A speed=13.5x    frame=12513 fps=323 q=-0.0 size=N/A time=00:08:41.89 bitrate=N/A speed=13.5x    frame=12678 fps=323 q=-0.0 size=N/A time=00:08:48.77 bitrate=N/A speed=13.5x    frame=12846 fps=323 q=-0.0 size=N/A time=00:08:55.78 bitrate=N/A speed=13.5x    frame=13017 fps=323 q=-0.0 size=N/A time=00:09:02.91 bitrate=N/A speed=13.5x    frame=13189 fps=323 q=-0.0 size=N/A time=00:09:10.09 bitrate=N/A speed=13.5x    frame=13356 fps=323 q=-0.0 size=N/A time=00:09:17.05 bitrate=N/A speed=13.5x    frame=13532 fps=324 q=-0.0 size=N/A time=00:09:24.39 bitrate=N/A speed=13.5x    frame=13709 fps=324 q=-0.0 size=N/A time=00:09:31.77 bitrate=N/A speed=13.5x    frame=13884 fps=324 q=-0.0 size=N/A time=00:09:39.07 bitrate=N/A speed=13.5x    frame=14058 fps=324 q=-0.0 size=N/A time=00:09:46.33 bitrate=N/A speed=13.5x    frame=14215 fps=324 q=-0.0 size=N/A time=00:09:52.88 bitrate=N/A speed=13.5x    frame=14387 fps=324 q=-0.0 size=N/A time=00:10:00.05 bitrate=N/A speed=13.5x    frame=14556 fps=324 q=-0.0 size=N/A time=00:10:07.10 bitrate=N/A speed=13.5x    frame=14731 fps=324 q=-0.0 size=N/A time=00:10:14.40 bitrate=N/A speed=13.5x    frame=14898 fps=324 q=-0.0 size=N/A time=00:10:21.37 bitrate=N/A speed=13.5x    frame=15080 fps=324 q=-0.0 size=N/A time=00:10:28.96 bitrate=N/A speed=13.5x    frame=15234 fps=324 q=-0.0 size=N/A time=00:10:35.38 bitrate=N/A speed=13.5x    frame=15409 fps=324 q=-0.0 size=N/A time=00:10:42.68 bitrate=N/A speed=13.5x    frame=15583 fps=325 q=-0.0 size=N/A time=00:10:49.94 bitrate=N/A speed=13.5x    frame=15762 fps=325 q=-0.0 size=N/A time=00:10:57.40 bitrate=N/A speed=13.5x    frame=15929 fps=325 q=-0.0 size=N/A time=00:11:04.37 bitrate=N/A speed=13.5x    frame=16105 fps=325 q=-0.0 size=N/A time=00:11:11.71 bitrate=N/A speed=13.6x    frame=16284 fps=325 q=-0.0 size=N/A time=00:11:19.17 bitrate=N/A speed=13.6x    frame=16451 fps=325 q=-0.0 size=N/A time=00:11:26.14 bitrate=N/A speed=13.6x    frame=16630 fps=325 q=-0.0 size=N/A time=00:11:33.60 bitrate=N/A speed=13.6x    frame=16795 fps=325 q=-0.0 size=N/A time=00:11:40.49 bitrate=N/A speed=13.6x    frame=16964 fps=325 q=-0.0 size=N/A time=00:11:47.54 bitrate=N/A speed=13.6x    frame=17136 fps=325 q=-0.0 size=N/A time=00:11:54.71 bitrate=N/A speed=13.6x    frame=17321 fps=326 q=-0.0 size=N/A time=00:12:02.43 bitrate=N/A speed=13.6x    frame=17489 fps=326 q=-0.0 size=N/A time=00:12:09.43 bitrate=N/A speed=13.6x    frame=17650 fps=326 q=-0.0 size=N/A time=00:12:16.15 bitrate=N/A speed=13.6x    frame=17811 fps=325 q=-0.0 size=N/A time=00:12:22.86 bitrate=N/A speed=13.6x    frame=17974 fps=325 q=-0.0 size=N/A time=00:12:29.66 bitrate=N/A speed=13.6x    frame=18157 fps=326 q=-0.0 size=N/A time=00:12:37.29 bitrate=N/A speed=13.6x    frame=18328 fps=326 q=-0.0 size=N/A time=00:12:44.43 bitrate=N/A speed=13.6x    frame=18502 fps=326 q=-0.0 size=N/A time=00:12:51.68 bitrate=N/A speed=13.6x    frame=18682 fps=326 q=-0.0 size=N/A time=00:12:59.19 bitrate=N/A speed=13.6x    frame=18862 fps=326 q=-0.0 size=N/A time=00:13:06.70 bitrate=N/A speed=13.6x    frame=19051 fps=327 q=-0.0 size=N/A time=00:13:14.58 bitrate=N/A speed=13.6x    frame=19212 fps=326 q=-0.0 size=N/A time=00:13:21.30 bitrate=N/A speed=13.6x    frame=19394 fps=327 q=-0.0 size=N/A time=00:13:28.89 bitrate=N/A speed=13.6x    frame=19572 fps=327 q=-0.0 size=N/A time=00:13:36.31 bitrate=N/A speed=13.6x    frame=19750 fps=327 q=-0.0 size=N/A time=00:13:43.73 bitrate=N/A speed=13.6x    frame=19921 fps=327 q=-0.0 size=N/A time=00:13:50.87 bitrate=N/A speed=13.6x    frame=20094 fps=327 q=-0.0 size=N/A time=00:13:58.08 bitrate=N/A speed=13.6x    frame=20264 fps=327 q=-0.0 size=N/A time=00:14:05.17 bitrate=N/A speed=13.6x    frame=20430 fps=327 q=-0.0 size=N/A time=00:14:12.10 bitrate=N/A speed=13.6x    frame=20605 fps=327 q=-0.0 size=N/A time=00:14:19.40 bitrate=N/A speed=13.6x    frame=20779 fps=327 q=-0.0 size=N/A time=00:14:26.65 bitrate=N/A speed=13.6x    frame=20958 fps=327 q=-0.0 size=N/A time=00:14:34.12 bitrate=N/A speed=13.7x    frame=21135 fps=328 q=-0.0 size=N/A time=00:14:41.50 bitrate=N/A speed=13.7x    frame=21309 fps=328 q=-0.0 size=N/A time=00:14:48.76 bitrate=N/A speed=13.7x    frame=21480 fps=328 q=-0.0 size=N/A time=00:14:55.89 bitrate=N/A speed=13.7x    frame=21671 fps=328 q=-0.0 size=N/A time=00:15:03.86 bitrate=N/A speed=13.7x    frame=21851 fps=328 q=-0.0 size=N/A time=00:15:11.36 bitrate=N/A speed=13.7x    frame=22028 fps=328 q=-0.0 size=N/A time=00:15:18.75 bitrate=N/A speed=13.7x    frame=22220 fps=329 q=-0.0 size=N/A time=00:15:26.75 bitrate=N/A speed=13.7x    frame=22400 fps=329 q=-0.0 size=N/A time=00:15:34.26 bitrate=N/A speed=13.7x    frame=22583 fps=329 q=-0.0 size=N/A time=00:15:41.89 bitrate=N/A speed=13.7x    frame=22758 fps=329 q=-0.0 size=N/A time=00:15:49.19 bitrate=N/A speed=13.7x    frame=22931 fps=329 q=-0.0 size=N/A time=00:15:56.41 bitrate=N/A speed=13.7x    frame=23118 fps=329 q=-0.0 size=N/A time=00:16:04.21 bitrate=N/A speed=13.7x    frame=23297 fps=329 q=-0.0 size=N/A time=00:16:11.67 bitrate=N/A speed=13.7x    frame=23474 fps=330 q=-0.0 size=N/A time=00:16:19.06 bitrate=N/A speed=13.7x    frame=23665 fps=330 q=-0.0 size=N/A time=00:16:27.02 bitrate=N/A speed=13.8x    frame=23842 fps=330 q=-0.0 size=N/A time=00:16:34.41 bitrate=N/A speed=13.8x    frame=24025 fps=330 q=-0.0 size=N/A time=00:16:42.04 bitrate=N/A speed=13.8x    frame=24197 fps=330 q=-0.0 size=N/A time=00:16:49.21 bitrate=N/A speed=13.8x    frame=24378 fps=330 q=-0.0 size=N/A time=00:16:56.76 bitrate=N/A speed=13.8x    frame=24559 fps=330 q=-0.0 size=N/A time=00:17:04.31 bitrate=N/A speed=13.8x    frame=24740 fps=331 q=-0.0 size=N/A time=00:17:11.86 bitrate=N/A speed=13.8x    frame=24925 fps=331 q=-0.0 size=N/A time=00:17:19.58 bitrate=N/A speed=13.8x    frame=25107 fps=331 q=-0.0 size=N/A time=00:17:27.17 bitrate=N/A speed=13.8x    frame=25287 fps=331 q=-0.0 size=N/A time=00:17:34.67 bitrate=N/A speed=13.8x    frame=25463 fps=331 q=-0.0 size=N/A time=00:17:42.01 bitrate=N/A speed=13.8x    frame=25652 fps=331 q=-0.0 size=N/A time=00:17:49.90 bitrate=N/A speed=13.8x    frame=25835 fps=331 q=-0.0 size=N/A time=00:17:57.53 bitrate=N/A speed=13.8x    frame=26015 fps=332 q=-0.0 size=N/A time=00:18:05.04 bitrate=N/A speed=13.8x    frame=26201 fps=332 q=-0.0 size=N/A time=00:18:12.80 bitrate=N/A speed=13.8x    frame=26394 fps=332 q=-0.0 size=N/A time=00:18:20.84 bitrate=N/A speed=13.8x    frame=26572 fps=332 q=-0.0 size=N/A time=00:18:28.27 bitrate=N/A speed=13.9x    frame=26755 fps=332 q=-0.0 size=N/A time=00:18:35.90 bitrate=N/A speed=13.9x    frame=26937 fps=332 q=-0.0 size=N/A time=00:18:43.49 bitrate=N/A speed=13.9x    frame=27111 fps=332 q=-0.0 size=N/A time=00:18:50.75 bitrate=N/A speed=13.9x    frame=27292 fps=333 q=-0.0 size=N/A time=00:18:58.30 bitrate=N/A speed=13.9x    frame=27468 fps=333 q=-0.0 size=N/A time=00:19:05.64 bitrate=N/A speed=13.9x    frame=27647 fps=333 q=-0.0 size=N/A time=00:19:13.11 bitrate=N/A speed=13.9x    frame=27831 fps=333 q=-0.0 size=N/A time=00:19:20.78 bitrate=N/A speed=13.9x    frame=28016 fps=333 q=-0.0 size=N/A time=00:19:28.50 bitrate=N/A speed=13.9x    frame=28198 fps=333 q=-0.0 size=N/A time=00:19:36.09 bitrate=N/A speed=13.9x    frame=28376 fps=333 q=-0.0 size=N/A time=00:19:43.51 bitrate=N/A speed=13.9x    frame=28561 fps=333 q=-0.0 size=N/A time=00:19:51.23 bitrate=N/A speed=13.9x    frame=28739 fps=333 q=-0.0 size=N/A time=00:19:58.65 bitrate=N/A speed=13.9x    frame=28906 fps=333 q=-0.0 size=N/A time=00:20:05.62 bitrate=N/A speed=13.9x    frame=29071 fps=333 q=-0.0 size=N/A time=00:20:12.50 bitrate=N/A speed=13.9x    frame=29257 fps=333 q=-0.0 size=N/A time=00:20:20.26 bitrate=N/A speed=13.9x    frame=29428 fps=333 q=-0.0 size=N/A time=00:20:27.39 bitrate=N/A speed=13.9x    frame=29592 fps=333 q=-0.0 size=N/A time=00:20:34.23 bitrate=N/A speed=13.9x    frame=29763 fps=333 q=-0.0 size=N/A time=00:20:41.36 bitrate=N/A speed=13.9x    frame=29938 fps=333 q=-0.0 size=N/A time=00:20:48.66 bitrate=N/A speed=13.9x    frame=30097 fps=333 q=-0.0 size=N/A time=00:20:55.29 bitrate=N/A speed=13.9x    frame=30276 fps=333 q=-0.0 size=N/A time=00:21:02.76 bitrate=N/A speed=13.9x    frame=30455 fps=333 q=-0.0 size=N/A time=00:21:10.22 bitrate=N/A speed=13.9x    frame=30643 fps=334 q=-0.0 size=N/A time=00:21:18.06 bitrate=N/A speed=13.9x    frame=30828 fps=334 q=-0.0 size=N/A time=00:21:25.78 bitrate=N/A speed=13.9x    frame=31011 fps=334 q=-0.0 size=N/A time=00:21:33.41 bitrate=N/A speed=13.9x    frame=31189 fps=334 q=-0.0 size=N/A time=00:21:40.84 bitrate=N/A speed=13.9x    frame=31364 fps=334 q=-0.0 size=N/A time=00:21:48.14 bitrate=N/A speed=13.9x    frame=31536 fps=334 q=-0.0 size=N/A time=00:21:55.31 bitrate=N/A speed=13.9x    frame=31717 fps=334 q=-0.0 size=N/A time=00:22:02.86 bitrate=N/A speed=13.9x    frame=31887 fps=334 q=-0.0 size=N/A time=00:22:09.95 bitrate=N/A speed=13.9x    frame=32058 fps=334 q=-0.0 size=N/A time=00:22:17.08 bitrate=N/A speed=13.9x    frame=32244 fps=334 q=-0.0 size=N/A time=00:22:24.84 bitrate=N/A speed=13.9x    frame=32414 fps=334 q=-0.0 size=N/A time=00:22:31.93 bitrate=N/A speed=13.9x    frame=32599 fps=334 q=-0.0 size=N/A time=00:22:39.64 bitrate=N/A speed=13.9x    frame=32740 fps=334 q=-0.0 size=N/A time=00:22:45.53 bitrate=N/A speed=13.9x    frame=32893 fps=334 q=-0.0 size=N/A time=00:22:51.91 bitrate=N/A speed=13.9x    frame=33066 fps=334 q=-0.0 size=N/A time=00:22:59.12 bitrate=N/A speed=13.9x    frame=33234 fps=334 q=-0.0 size=N/A time=00:23:06.13 bitrate=N/A speed=13.9x    frame=33402 fps=334 q=-0.0 size=N/A time=00:23:13.14 bitrate=N/A speed=13.9x    frame=33562 fps=333 q=-0.0 size=N/A time=00:23:19.81 bitrate=N/A speed=13.9x    frame=33709 fps=333 q=-0.0 size=N/A time=00:23:25.94 bitrate=N/A speed=13.9x    frame=33830 fps=333 q=-0.0 size=N/A time=00:23:30.99 bitrate=N/A speed=13.9x    frame=33967 fps=332 q=-0.0 size=N/A time=00:23:36.70 bitrate=N/A speed=13.9x    frame=34127 fps=332 q=-0.0 size=N/A time=00:23:43.38 bitrate=N/A speed=13.9x    frame=34282 fps=332 q=-0.0 size=N/A time=00:23:49.84 bitrate=N/A speed=13.9x    frame=34406 fps=332 q=-0.0 size=N/A time=00:23:55.01 bitrate=N/A speed=13.8x    frame=34569 fps=332 q=-0.0 size=N/A time=00:24:01.81 bitrate=N/A speed=13.8x    [Parsed_ssim_16 @ 0000013ae7aaafc0] SSIM Y:0.994043 (22.249366) U:0.993991 (22.212260) V:0.993596 (21.935264) All:0.993960 (22.189283)
[out#0/null @ 0000013adad5dec0] video:14903KiB audio:271276KiB subtitle:0KiB other streams:0KiB global headers:0KiB muxing overhead: unknown
frame=34683 fps=332 q=-0.0 Lsize=N/A time=00:24:06.57 bitrate=N/A speed=13.8x    
